<?xml version="1.0" standalone="no"?><svg xmlns="http://www.w3.org/2000/svg" xmlns:xlink="http://www.w3.org/1999/xlink" style="isolation:isolate" viewBox="0 0 840.8 202" width="840.8" height="202"><defs><clipPath id="_clipPath_Lkf7P3mjGHi1YQLG38Y4PNEG3shLWu8q"><rect width="840.8" height="202"/></clipPath></defs><g clip-path="url(#_clipPath_Lkf7P3mjGHi1YQLG38Y4PNEG3shLWu8q)"><path d=" M 562.2 51 Q 552.8 51 543.9 54.6 Q 535 58.2 528.2 64.8 Q 521.4 71.4 517.3 80.6 Q 513.2 89.8 513.2 101.2 Q 513.2 112 517.1 121.2 Q 521 130.4 527.8 137.1 Q 534.6 143.8 543.4 147.6 Q 552.2 151.4 562.2 151.4 L 562.2 141.4 Q 553.8 141.4 546.4 137.9 Q 539 134.4 533.6 128.8 Q 528.2 123.2 525.1 116 Q 522 108.8 522 101.2 Q 522 92.8 525.4 85.4 Q 528.8 78 534.5 72.6 Q 540.2 67.2 547.4 64.1 Q 554.6 61 562.2 61 L 712.4 61 L 712.4 51 L 562.2 51 Z  M 35.2 151.2 L 25.2 151.2 L 25.2 101.4 Q 25.2 92 27.8 83.1 Q 30.4 74.2 36.3 67.2 Q 42.2 60.2 51.7 55.9 Q 61.2 51.6 75 51.6 L 75 61.6 Q 62 61.6 54.2 65.9 Q 46.4 70.2 42.2 76.4 Q 38 82.6 36.6 89.5 Q 35.2 96.4 35.2 101.4 L 35.2 151.2 L 35.2 151.2 Z  M 10.2 0 L 10.2 151.2 L 0 151.2 L 0 0 L 10.2 0 L 10.2 0 Z  M 408.6 100.688 L 398 100.688 Q 398 91.485 401.493 82.577 Q 404.986 73.669 411.573 66.755 Q 418.16 59.842 427.541 55.721 Q 436.922 51.6 448.698 51.6 Q 459.876 51.6 468.958 55.8 Q 478.04 60 484.427 66.9 Q 490.814 73.8 494.307 82.7 Q 497.8 91.6 497.8 100.8 L 497.8 151.4 L 487.2 151.4 L 487.2 100.687 Q 487.2 92.669 484.2 85.653 Q 481.2 78.637 476 73.426 Q 470.8 68.214 463.8 65.107 Q 456.8 62 448.8 62 Q 439.6 62 432.2 65.127 Q 424.8 68.254 419.5 73.465 Q 414.2 78.676 411.4 85.681 Q 408.6 92.685 408.6 100.688 L 408.6 100.688 Z  M 334.6 202 L 371.2 125.6 L 334.6 51.4 L 345 51.4 L 383.2 125.6 L 345 202 L 334.6 202 L 334.6 202 Z  M 320.6 0 L 320.6 10.4 L 265 10.4 Q 242.6 10.4 231.1 18.473 Q 219.6 26.546 219.6 40.5 Q 219.6 49.869 223.7 55.65 Q 227.8 61.43 234.2 64.819 Q 240.6 68.208 248.7 69.404 Q 256.8 70.6 265 70.6 L 280.2 70.6 Q 289.6 70.6 297.1 74.209 Q 304.6 77.818 309.8 83.632 Q 315 89.447 317.8 96.664 Q 320.6 103.882 320.6 111.1 Q 320.6 119.291 317.5 126.609 Q 314.4 133.927 309 139.541 Q 303.6 145.154 296.2 148.362 Q 288.8 151.4 280.2 151.4 L 265 151.4 L 265 141.4 L 280.2 141.4 Q 286.4 141.37 291.9 139.17 Q 297.4 136.97 301.6 132.97 Q 305.8 128.97 308.2 123.47 Q 310.6 118 310.6 111.2 Q 310.6 104.2 307.9 98.6 Q 305.2 93 300.9 89.1 Q 296.6 85.2 291.1 83.1 Q 285.6 81 280.2 81 L 265 81 Q 260.4 80.8 254.6 80.599 Q 248.8 80.399 242.6 79.296 Q 236.4 78.193 230.5 75.787 Q 224.6 73.381 220 68.87 Q 215.4 64.359 212.5 57.542 Q 209.6 50.725 209.6 40.5 Q 209.6 28.47 214.6 20.551 Q 219.6 12.631 227.5 8.12 Q 235.4 3.609 245.3 1.804 Q 255.2 0 265 0 L 320.6 0 L 320.6 0 Z  M 115.083 61.6 L 75 61.6 L 75 51.6 L 144.8 51.6 Q 155 52 164.1 56.1 Q 173.2 60.2 180 67.1 Q 186.8 74 190.7 83 Q 194.6 92 194.6 101.8 L 194.6 151.4 L 194.6 151.4 L 184.6 151.4 L 184.6 101.8 Q 184.6 93.8 181.7 86.6 Q 178.8 79.4 173.5 73.9 Q 168.2 68.4 160.9 65.2 Q 153.6 62 144.8 62 Q 136.4 62 129.2 65.4 Q 122 68.8 116.7 74.4 Q 111.4 80 108.3 87.2 Q 105.2 94.4 105.2 101.8 Q 105.2 109.2 108.6 116.3 Q 112 123.4 117.6 129 Q 123.2 134.6 130.3 138 Q 137.4 141.4 144.8 141.4 L 144.8 151.4 Q 134.6 151.4 125.6 147.5 Q 116.6 143.6 109.8 136.8 Q 103 130 99.1 121 Q 95.2 112 95.2 101.8 Q 95.2 92 98.8 83 Q 102.4 74 108.9 67.1 Q 111.743 64.082 115.083 61.6 Z  M 144.8 141.4 L 265 141.4 L 265 151.4 L 144.8 151.4 L 144.8 141.4 Z  M 320.6 0 L 840.8 0 L 840.8 10.4 L 320.6 10.4 L 320.6 0 Z " fill="rgb(0,0,0)"/></g></svg>