<?xml version="1.0" standalone="no"?><!-- Generator: Gravit.io --><svg xmlns="http://www.w3.org/2000/svg" xmlns:xlink="http://www.w3.org/1999/xlink" style="isolation:isolate" viewBox="0 0 130.11 35" width="130.11" height="35"><defs><clipPath id="_clipPath_kksPM7UJC89024ahglSwn9f8w69JoT7d"><rect width="130.11" height="35"/></clipPath></defs><g clip-path="url(#_clipPath_kksPM7UJC89024ahglSwn9f8w69JoT7d)"><g id="Group"><rect x="37.895" y="6.055" width="90.874" height="1.376" transform="matrix(1,0,0,1,0,0)" fill="rgb(0,0,0)"/><path d=" M 2.744 6 L 2.744 6 L 2.744 26.81 L 1.341 26.81 L 1.341 6 L 2.744 6 Z  M 6.185 6.248 L 6.185 6.248 L 6.185 26.865 L 4.836 26.865 L 4.836 6.248 L 6.185 6.248 Z  M 9.598 6.248 L 9.598 6.248 L 9.598 26.865 L 8.25 26.865 L 8.25 6.248 L 9.598 6.248 Z  M 11.69 19.983 L 11.69 13.074 L 13.149 13.074 L 13.149 19.968 L 13.149 19.968 Q 13.149 21.066 13.547 22.041 L 13.547 22.041 L 13.547 22.041 Q 13.946 23.016 14.659 23.744 L 14.659 23.744 L 14.659 23.744 Q 15.373 24.472 16.403 24.898 L 16.403 24.898 L 16.403 24.898 Q 17.433 25.323 18.696 25.323 L 18.696 25.323 L 18.696 25.323 Q 19.766 25.323 20.741 24.901 L 20.741 24.901 L 20.741 24.901 Q 21.716 24.478 22.43 23.75 L 22.43 23.75 L 22.43 23.75 Q 23.143 23.022 23.569 22.045 L 23.569 22.045 L 23.569 22.045 Q 23.995 21.069 23.995 19.968 L 23.995 19.968 L 25.454 19.968 L 25.454 19.968 Q 25.454 21.316 24.943 22.54 L 24.943 22.54 L 24.943 22.54 Q 24.433 23.764 23.523 24.698 L 23.523 24.698 L 23.523 24.698 Q 22.613 25.632 21.371 26.193 L 21.371 26.193 L 21.371 26.193 Q 20.13 26.755 18.696 26.755 L 18.696 26.755 L 18.696 26.755 Q 17.069 26.755 15.772 26.177 L 15.772 26.177 L 15.772 26.177 Q 14.476 25.599 13.566 24.649 L 13.566 24.649 L 13.566 24.649 Q 12.656 23.699 12.173 22.474 L 12.173 22.474 L 12.173 22.474 Q 11.69 21.25 11.69 19.983 L 11.69 19.983 Z  M 27.463 16.432 L 27.463 16.432 L 27.463 16.432 Q 27.463 14.671 28.124 12.827 L 28.124 12.827 L 28.124 12.827 Q 28.784 10.982 30.092 9.482 L 30.092 9.482 L 30.092 9.482 Q 31.399 7.982 33.354 7.018 L 33.354 7.018 L 33.354 7.018 Q 35.308 6.055 37.895 6.055 L 37.895 6.055 L 37.895 7.431 L 37.895 7.431 Q 36.244 7.431 34.62 8.161 L 34.62 8.161 L 34.62 8.161 Q 32.996 8.89 31.716 10.129 L 31.716 10.129 L 31.716 10.129 Q 30.436 11.368 29.638 12.992 L 29.638 12.992 L 29.638 12.992 Q 28.839 14.616 28.839 16.432 L 28.839 16.432 L 28.839 16.432 Q 28.839 18.635 29.665 20.327 L 29.665 20.327 L 29.665 20.327 Q 30.491 22.02 31.798 23.176 L 31.798 23.176 L 31.798 23.176 Q 33.106 24.333 34.716 24.924 L 34.716 24.924 L 34.716 24.924 Q 36.326 25.516 37.895 25.489 L 37.895 25.489 L 44.832 25.489 L 44.832 16.432 L 46.208 16.432 L 46.208 25.489 L 46.208 26.865 L 37.895 26.865 L 37.895 26.865 Q 37.07 26.865 35.969 26.645 L 35.969 26.645 L 35.969 26.645 Q 34.868 26.424 33.711 25.943 L 33.711 25.943 L 33.711 25.943 Q 32.555 25.461 31.427 24.663 L 31.427 24.663 L 31.427 24.663 Q 30.298 23.865 29.417 22.708 L 29.417 22.708 L 29.417 22.708 Q 28.536 21.552 28 19.997 L 28 19.997 L 28 19.997 Q 27.463 18.442 27.463 16.432 Z  M 49.622 26.81 L 48.245 26.81 L 48.245 19.956 L 48.245 19.956 Q 48.245 18.662 48.603 17.437 L 48.603 17.437 L 48.603 17.437 Q 48.961 16.212 49.773 15.249 L 49.773 15.249 L 49.773 15.249 Q 50.585 14.285 51.893 13.694 L 51.893 13.694 L 51.893 13.694 Q 53.2 13.102 55.099 13.102 L 55.099 13.102 L 55.099 14.478 L 55.099 14.478 Q 53.31 14.478 52.237 15.07 L 52.237 15.07 L 52.237 15.07 Q 51.163 15.662 50.585 16.515 L 50.585 16.515 L 50.585 16.515 Q 50.007 17.368 49.814 18.318 L 49.814 18.318 L 49.814 18.318 Q 49.622 19.268 49.622 19.956 L 49.622 19.956 L 49.622 26.81 Z  M 71.56 26.837 L 70.184 26.837 L 70.184 20.011 L 70.184 20.011 Q 70.184 18.91 69.785 17.919 L 69.785 17.919 L 69.785 17.919 Q 69.385 16.928 68.656 16.171 L 68.656 16.171 L 68.656 16.171 Q 67.927 15.414 66.922 14.974 L 66.922 14.974 L 66.922 14.974 Q 65.917 14.533 64.706 14.533 L 64.706 14.533 L 64.706 14.533 Q 63.55 14.533 62.559 15.001 L 62.559 15.001 L 62.559 15.001 Q 61.568 15.469 60.839 16.24 L 60.839 16.24 L 60.839 16.24 Q 60.109 17.011 59.682 18.001 L 59.682 18.001 L 59.682 18.001 Q 59.256 18.992 59.256 20.011 L 59.256 20.011 L 59.256 20.011 Q 59.256 21.029 59.724 22.007 L 59.724 22.007 L 59.724 22.007 Q 60.192 22.984 60.962 23.754 L 60.962 23.754 L 60.962 23.754 Q 61.733 24.525 62.71 24.993 L 62.71 24.993 L 62.71 24.993 Q 63.688 25.461 64.706 25.461 L 64.706 25.461 L 64.706 26.837 L 64.706 26.837 Q 63.302 26.837 62.063 26.301 L 62.063 26.301 L 62.063 26.301 Q 60.825 25.764 59.889 24.828 L 59.889 24.828 L 59.889 24.828 Q 58.953 23.892 58.416 22.653 L 58.416 22.653 L 58.416 22.653 Q 57.879 21.415 57.879 20.011 L 57.879 20.011 L 57.879 20.011 Q 57.879 18.662 58.375 17.423 L 58.375 17.423 L 58.375 17.423 Q 58.87 16.185 59.765 15.235 L 59.765 15.235 L 59.765 15.235 Q 60.66 14.285 61.912 13.721 L 61.912 13.721 L 61.912 13.721 Q 63.165 13.157 64.706 13.157 L 64.706 13.157 L 64.706 13.157 Q 66.11 13.157 67.362 13.721 L 67.362 13.721 L 67.362 13.721 Q 68.615 14.285 69.551 15.235 L 69.551 15.235 L 69.551 15.235 Q 70.486 16.185 71.023 17.423 L 71.023 17.423 L 71.023 17.423 Q 71.56 18.662 71.56 20.011 L 71.56 20.011 L 71.56 26.837 Z  M 87.36 19.791 L 87.36 19.791 L 87.36 19.791 Q 87.36 21.167 86.851 22.433 L 86.851 22.433 L 86.851 22.433 Q 86.342 23.699 85.433 24.663 L 85.433 24.663 L 85.433 24.663 Q 84.525 25.626 83.286 26.218 L 83.286 26.218 L 83.286 26.218 Q 82.048 26.81 80.589 26.81 L 80.589 26.81 L 80.589 25.378 L 80.589 25.378 Q 81.855 25.378 82.846 24.908 L 82.846 24.908 L 82.846 24.908 Q 83.837 24.438 84.511 23.663 L 84.511 23.663 L 84.511 23.663 Q 85.186 22.889 85.543 21.879 L 85.543 21.879 L 85.543 21.879 Q 85.901 20.869 85.901 19.79 L 85.901 19.79 L 85.901 19.79 Q 85.901 18.711 85.516 17.729 L 85.516 17.729 L 85.516 17.729 Q 85.13 16.747 84.429 16.028 L 84.429 16.028 L 84.429 16.028 Q 83.727 15.308 82.749 14.879 L 82.749 14.879 L 82.749 14.879 Q 81.772 14.451 80.589 14.451 L 80.589 14.451 L 80.589 14.451 Q 79.488 14.451 78.483 14.878 L 78.483 14.878 L 78.483 14.878 Q 77.478 15.305 76.707 16.022 L 76.707 16.022 L 76.707 16.022 Q 75.937 16.739 75.483 17.717 L 75.483 17.717 L 75.483 17.717 Q 75.028 18.696 75.028 19.771 L 75.028 19.771 L 75.028 33.581 L 73.569 33.581 L 73.569 19.791 L 73.569 19.791 Q 73.569 18.524 74.079 17.3 L 74.079 17.3 L 74.079 17.3 Q 74.588 16.075 75.524 15.125 L 75.524 15.125 L 75.524 15.125 Q 76.46 14.175 77.753 13.597 L 77.753 13.597 L 77.753 13.597 Q 79.047 13.019 80.589 13.019 L 80.589 13.019 L 80.589 13.019 Q 82.13 13.019 83.383 13.597 L 83.383 13.597 L 83.383 13.597 Q 84.635 14.175 85.516 15.125 L 85.516 15.125 L 85.516 15.125 Q 86.397 16.075 86.878 17.3 L 86.878 17.3 L 86.878 17.3 Q 87.36 18.524 87.36 19.791 Z  M 89.425 14.285 L 89.425 6.055 L 90.828 6.055 L 90.828 12.854 L 94.957 12.854 L 94.957 12.854 Q 96.526 12.854 97.82 13.446 L 97.82 13.446 L 97.82 13.446 Q 99.114 14.038 100.036 15.015 L 100.036 15.015 L 100.036 15.015 Q 100.958 15.992 101.454 17.244 L 101.454 17.244 L 101.454 17.244 Q 101.949 18.497 101.949 19.818 L 101.949 19.818 L 101.949 26.81 L 100.545 26.81 L 100.545 19.818 L 100.545 19.818 Q 100.545 18.69 100.063 17.685 L 100.063 17.685 L 100.063 17.685 Q 99.582 16.68 98.797 15.923 L 98.797 15.923 L 98.797 15.923 Q 98.013 15.166 97.008 14.726 L 97.008 14.726 L 97.008 14.726 Q 96.003 14.285 94.957 14.285 L 94.957 14.285 L 90.828 14.285 L 89.425 14.285 Z " fill-rule="evenodd" fill="rgb(0,0,0)"/></g></g></svg>